<svg width="96" height="96" xmlns="http://www.w3.org/2000/svg">
  <defs>
    <filter height="200%" width="200%" y="-50%" x="-50%" id="surface140479_blur">
      <feGaussianBlur stdDeviation="3.1" in="SourceGraphic"/>
    </filter>
  </defs>
  <g>
    <title>background</title>
    <rect fill="none" id="canvas_background" height="602" width="802" y="-1" x="-1"/>
  </g>
  <g>
    <title>Layer 1</title>
    <g filter="url(#surface140479_blur)" stroke="null" id="surface140479">
      <path stroke="null" id="svg_1" fill-rule="nonzero" fill="#303030" d="m12.12048,18.72288c-1.44141,-0.01918 -2.78516,0.72494 -3.51172,1.94852c-0.72656,1.22357 -0.72656,2.73482 0,3.9584c0.72656,1.22357 2.07031,1.96769 3.51172,1.94851l72,0c1.44141,0.01918 2.78516,-0.72494 3.51172,-1.94851c0.72656,-1.22358 0.72656,-2.73483 0,-3.9584c-0.72656,-1.22358 -2.07031,-1.9677 -3.51172,-1.94852l-72,0zm0,25.53013c-1.44141,-0.01918 -2.78516,0.72494 -3.51172,1.94852c-0.72656,1.22357 -0.72656,2.73482 0,3.9584c0.72656,1.22357 2.07031,1.96769 3.51172,1.94851l72,0c1.44141,0.01918 2.78516,-0.72494 3.51172,-1.94851c0.72656,-1.22358 0.72656,-2.73483 0,-3.9584c-0.72656,-1.22358 -2.07031,-1.9677 -3.51172,-1.94852l-72,0zm0,25.53013c-1.44141,-0.01918 -2.78516,0.72494 -3.51172,1.94852c-0.72656,1.22357 -0.72656,2.73482 0,3.9584c0.72656,1.22357 2.07031,1.96769 3.51172,1.94851l72,0c1.44141,0.01918 2.78516,-0.72494 3.51172,-1.94851c0.72656,-1.22358 0.72656,-2.73483 0,-3.9584c-0.72656,-1.22358 -2.07031,-1.9677 -3.51172,-1.94852l-72,0zm0,0"/>
    </g>
    <g stroke="null" transform="rotate(-0.3656054139137268 47.99999618530614,48.00000762939418) " id="svg_5">
      <path stroke="null" id="svg_4" fill-rule="nonzero" fill="#ffffff" d="m12.48526,18.76532c-1.42198,-0.01903 -2.74762,0.71945 -3.46438,1.93376c-0.71677,1.2143 -0.71677,2.7141 0,3.92841c0.71677,1.2143 2.0424,1.95278 3.46438,1.93375l71.02949,0c1.42198,0.01903 2.74762,-0.71945 3.46438,-1.93375c0.71677,-1.21431 0.71677,-2.71411 0,-3.92841c-0.71677,-1.21431 -2.0424,-1.95279 -3.46438,-1.93376l-71.02949,0zm0,25.33673c-1.42198,-0.01903 -2.74762,0.71945 -3.46438,1.93376c-0.71677,1.2143 -0.71677,2.7141 0,3.92841c0.71677,1.2143 2.0424,1.95278 3.46438,1.93375l71.02949,0c1.42198,0.01903 2.74762,-0.71945 3.46438,-1.93375c0.71677,-1.21431 0.71677,-2.71411 0,-3.92841c-0.71677,-1.21431 -2.0424,-1.95279 -3.46438,-1.93376l-71.02949,0zm0,25.33673c-1.42198,-0.01903 -2.74762,0.71945 -3.46438,1.93376c-0.71677,1.2143 -0.71677,2.7141 0,3.92841c0.71677,1.2143 2.0424,1.95278 3.46438,1.93375l71.02949,0c1.42198,0.01903 2.74762,-0.71945 3.46438,-1.93375c0.71677,-1.21431 0.71677,-2.71411 0,-3.92841c-0.71677,-1.21431 -2.0424,-1.95279 -3.46438,-1.93376l-71.02949,0zm0,0"/>
    </g>
  </g>
</svg>