<?xml version="1.0" encoding="UTF-8"?>
<svg xmlns="http://www.w3.org/2000/svg" xmlns:xlink="http://www.w3.org/1999/xlink" width="96pt" height="96pt" viewBox="0 0 96 96" version="1.1">
<g id="surface140479">
 <path style=" stroke:none;fill-rule:nonzero;fill:rgb(100%,100%,100%);fill-opacity:1;" d="M 12 18 C 10.558594 17.980469 9.214844 18.738281 8.488281 19.984375 C 7.761719 21.230469 7.761719 22.769531 8.488281 24.015625 C 9.214844 25.261719 10.558594 26.019531 12 26 L 84 26 C 85.441406 26.019531 86.785156 25.261719 87.511719 24.015625 C 88.238281 22.769531 88.238281 21.230469 87.511719 19.984375 C 86.785156 18.738281 85.441406 17.980469 84 18 Z M 12 44 C 10.558594 43.980469 9.214844 44.738281 8.488281 45.984375 C 7.761719 47.230469 7.761719 48.769531 8.488281 50.015625 C 9.214844 51.261719 10.558594 52.019531 12 52 L 84 52 C 85.441406 52.019531 86.785156 51.261719 87.511719 50.015625 C 88.238281 48.769531 88.238281 47.230469 87.511719 45.984375 C 86.785156 44.738281 85.441406 43.980469 84 44 Z M 12 70 C 10.558594 69.980469 9.214844 70.738281 8.488281 71.984375 C 7.761719 73.230469 7.761719 74.769531 8.488281 76.015625 C 9.214844 77.261719 10.558594 78.019531 12 78 L 84 78 C 85.441406 78.019531 86.785156 77.261719 87.511719 76.015625 C 88.238281 74.769531 88.238281 73.230469 87.511719 71.984375 C 86.785156 70.738281 85.441406 69.980469 84 70 Z M 12 70 "/>
 <path style=" stroke:none;fill-rule:nonzero;fill:rgb(0%,0%,0%);fill-opacity:1;" d="M 12 18 C 10.558594 17.980469 9.214844 18.738281 8.488281 19.984375 C 7.761719 21.230469 7.761719 22.769531 8.488281 24.015625 C 9.214844 25.261719 10.558594 26.019531 12 26 L 84 26 C 85.441406 26.019531 86.785156 25.261719 87.511719 24.015625 C 88.238281 22.769531 88.238281 21.230469 87.511719 19.984375 C 86.785156 18.738281 85.441406 17.980469 84 18 Z M 12 44 C 10.558594 43.980469 9.214844 44.738281 8.488281 45.984375 C 7.761719 47.230469 7.761719 48.769531 8.488281 50.015625 C 9.214844 51.261719 10.558594 52.019531 12 52 L 84 52 C 85.441406 52.019531 86.785156 51.261719 87.511719 50.015625 C 88.238281 48.769531 88.238281 47.230469 87.511719 45.984375 C 86.785156 44.738281 85.441406 43.980469 84 44 Z M 12 70 C 10.558594 69.980469 9.214844 70.738281 8.488281 71.984375 C 7.761719 73.230469 7.761719 74.769531 8.488281 76.015625 C 9.214844 77.261719 10.558594 78.019531 12 78 L 84 78 C 85.441406 78.019531 86.785156 77.261719 87.511719 76.015625 C 88.238281 74.769531 88.238281 73.230469 87.511719 71.984375 C 86.785156 70.738281 85.441406 69.980469 84 70 Z M 12 70 "/>
</g>
</svg>
